<svg width="24" height="24" viewBox="0 0 24 24" fill="none" xmlns="http://www.w3.org/2000/svg">
<path d="M18.9999 3V7M18.9999 21V11M11.9999 3V15M11.9999 21V19M4.99988 3V5M4.99988 21V9" stroke="white" stroke-width="2" stroke-linecap="round"/>
<path d="M17 9C17 10.1046 17.8954 11 19 11C20.1046 11 21 10.1046 21 9C21 7.89543 20.1046 7 19 7C17.8954 7 17 7.89543 17 9Z" stroke="white" stroke-width="2" stroke-linecap="round"/>
<path d="M9.99988 17C9.99988 18.1046 10.8953 19 11.9999 19C13.1044 19 13.9999 18.1046 13.9999 17C13.9999 15.8954 13.1044 15 11.9999 15C10.8953 15 9.99988 15.8954 9.99988 17Z" stroke="white" stroke-width="2" stroke-linecap="round"/>
<path d="M3.00012 7C3.00012 8.10457 3.89555 9 5.00012 9C6.10469 9 7.00012 8.10457 7.00012 7C7.00012 5.89543 6.10469 5 5.00012 5C3.89555 5 3.00012 5.89543 3.00012 7Z" stroke="white" stroke-width="2" stroke-linecap="round"/>
</svg>
