<svg width="24" height="24" viewBox="0 0 24 24" fill="none" xmlns="http://www.w3.org/2000/svg">
<g clip-path="url(#clip0_1045_1956)">
<path d="M12.001 2C17.524 2 22.001 6.477 22.001 12C22.001 17.523 17.524 22 12.001 22C6.47798 22 2.00098 17.523 2.00098 12C2.00098 6.477 6.47798 2 12.001 2ZM12.001 4C9.87924 4 7.84441 4.84285 6.34412 6.34315C4.84383 7.84344 4.00098 9.87827 4.00098 12C4.00098 14.1217 4.84383 16.1566 6.34412 17.6569C7.84441 19.1571 9.87924 20 12.001 20C14.1227 20 16.1575 19.1571 17.6578 17.6569C19.1581 16.1566 20.001 14.1217 20.001 12C20.001 9.87827 19.1581 7.84344 17.6578 6.34315C16.1575 4.84285 14.1227 4 12.001 4ZM12.001 10C12.5314 10 13.0401 10.2107 13.4152 10.5858C13.7903 10.9609 14.001 11.4696 14.001 12C14.001 12.5304 13.7903 13.0391 13.4152 13.4142C13.0401 13.7893 12.5314 14 12.001 14C11.4705 14 10.9618 13.7893 10.5868 13.4142C10.2117 13.0391 10.001 12.5304 10.001 12C10.001 11.4696 10.2117 10.9609 10.5868 10.5858C10.9618 10.2107 11.4705 10 12.001 10ZM11.441 6.507C11.4847 6.63084 11.5036 6.76207 11.4966 6.89322C11.4897 7.02437 11.4569 7.15286 11.4003 7.27135C11.3436 7.38984 11.2642 7.49601 11.1665 7.5838C11.0688 7.67159 10.9548 7.73928 10.831 7.783C9.7081 8.18205 8.76381 8.96755 8.16698 9.999C8.03424 10.2287 7.81569 10.3962 7.55942 10.4648C7.30316 10.5333 7.03015 10.4972 6.80048 10.3645C6.5708 10.2318 6.40326 10.0132 6.33472 9.75695C6.26617 9.50068 6.30224 9.22768 6.43498 8.998C7.27046 7.55428 8.59279 6.4553 10.165 5.898C10.4149 5.80962 10.6898 5.82412 10.9291 5.93832C11.1683 6.05252 11.3525 6.25707 11.441 6.507Z" fill="white"/>
</g>
<defs>
<clipPath id="clip0_1045_1956">
<rect width="24" height="24" fill="white" transform="translate(0.000976562)"/>
</clipPath>
</defs>
</svg>
