<svg width="16" height="16" viewBox="0 0 16 16" fill="none" xmlns="http://www.w3.org/2000/svg">
<g clip-path="url(#clip0_1051_10085)">
<path fill-rule="evenodd" clip-rule="evenodd" d="M14.3639 3.40732C14.5513 3.59484 14.6566 3.84915 14.6566 4.11432C14.6566 4.37948 14.5513 4.63379 14.3639 4.82132L6.86852 12.3167C6.76947 12.4157 6.65187 12.4943 6.52244 12.5479C6.39301 12.6016 6.25429 12.6292 6.11419 12.6292C5.97409 12.6292 5.83537 12.6016 5.70594 12.5479C5.57651 12.4943 5.45891 12.4157 5.35985 12.3167L1.63585 8.59332C1.54034 8.50107 1.46416 8.39073 1.41175 8.26872C1.35934 8.14672 1.33176 8.0155 1.3306 7.88272C1.32945 7.74994 1.35475 7.61826 1.40503 7.49536C1.45531 7.37247 1.52957 7.26081 1.62346 7.16692C1.71735 7.07303 1.829 6.99878 1.9519 6.94849C2.0748 6.89821 2.20648 6.87291 2.33926 6.87407C2.47204 6.87522 2.60326 6.90281 2.72526 6.95522C2.84726 7.00762 2.95761 7.08381 3.04985 7.17932L6.11385 10.2433L12.9492 3.40732C13.0421 3.31439 13.1523 3.24067 13.2737 3.19038C13.3951 3.14008 13.5251 3.1142 13.6565 3.1142C13.7879 3.1142 13.918 3.14008 14.0394 3.19038C14.1607 3.24067 14.271 3.31439 14.3639 3.40732Z" fill="white"/>
</g>
<defs>
<clipPath id="clip0_1051_10085">
<rect width="16" height="16" fill="white"/>
</clipPath>
</defs>
</svg>
