<svg width="40" height="40" viewBox="0 0 40 40" fill="none" xmlns="http://www.w3.org/2000/svg">
<g clip-path="url(#clip0_1059_2965)">
<rect x="12" y="12" width="16" height="16" fill="white"/>
<path d="M20.0002 3.33333C29.2052 3.33333 36.6668 10.795 36.6668 20C36.6668 29.205 29.2052 36.6667 20.0002 36.6667C10.7952 36.6667 3.3335 29.205 3.3335 20C3.3335 10.795 10.7952 3.33333 20.0002 3.33333ZM16.4652 14.1067C16.1659 13.8046 15.7625 13.6283 15.3376 13.6139C14.9126 13.5994 14.4982 13.748 14.1792 14.0291C13.8602 14.3102 13.6607 14.7026 13.6215 15.126C13.5823 15.5494 13.7065 15.9718 13.9685 16.3067L14.1085 16.465L17.6418 19.9983L14.1085 23.535C13.8064 23.8342 13.6301 24.2376 13.6157 24.6626C13.6013 25.0875 13.7498 25.5019 14.0309 25.821C14.3121 26.14 14.7045 26.3395 15.1279 26.3787C15.5513 26.4178 15.9736 26.2937 16.3085 26.0317L16.4652 25.8933L20.0002 22.3567L23.5352 25.8933C23.8344 26.1954 24.2378 26.3717 24.6627 26.3861C25.0877 26.4006 25.5021 26.252 25.8211 25.9709C26.1402 25.6898 26.3397 25.2974 26.3788 24.874C26.418 24.4506 26.2939 24.0282 26.0318 23.6933L25.8935 23.535L22.3568 20L25.8935 16.465C26.1956 16.1658 26.3719 15.7624 26.3863 15.3374C26.4007 14.9125 26.2522 14.498 25.9711 14.179C25.6899 13.86 25.2975 13.6605 24.8741 13.6213C24.4507 13.5822 24.0284 13.7063 23.6935 13.9683L23.5352 14.1067L20.0002 17.6433L16.4652 14.1067Z" fill="#282828"/>
</g>
<defs>
<clipPath id="clip0_1059_2965">
<rect width="40" height="40" fill="white"/>
</clipPath>
</defs>
</svg>
