<svg width="16" height="16" viewBox="0 0 16 16" fill="none" xmlns="http://www.w3.org/2000/svg">
<g clip-path="url(#clip0_1051_2280)">
<path fill-rule="evenodd" clip-rule="evenodd" d="M8.7066 10.7067C8.5191 10.894 8.26493 10.9991 7.99993 10.9991C7.73493 10.9991 7.48077 10.894 7.29327 10.7067L3.52127 6.93603C3.33376 6.74843 3.22845 6.49403 3.22852 6.22879C3.22858 5.96355 3.334 5.7092 3.5216 5.52169C3.7092 5.33419 3.9636 5.22888 4.22884 5.22894C4.49408 5.22901 4.74843 5.33443 4.93593 5.52203L7.99993 8.58603L11.0639 5.52203C11.2525 5.33978 11.505 5.23886 11.7672 5.24102C12.0294 5.24317 12.2803 5.34822 12.4658 5.53354C12.6513 5.71887 12.7565 5.96963 12.7589 6.23183C12.7613 6.49402 12.6607 6.74667 12.4786 6.93536L8.70727 10.7074L8.7066 10.7067Z" fill="white"/>
</g>
<defs>
<clipPath id="clip0_1051_2280">
<rect width="16" height="16" fill="white"/>
</clipPath>
</defs>
</svg>
