<svg width="24" height="24" viewBox="0 0 24 24" fill="none" xmlns="http://www.w3.org/2000/svg">
<g clip-path="url(#clip0_1045_1876)">
<path fill-rule="evenodd" clip-rule="evenodd" d="M18.5 5.5H16C15.6022 5.5 15.2206 5.34196 14.9393 5.06066C14.658 4.77936 14.5 4.39782 14.5 4C14.5 3.60218 14.658 3.22064 14.9393 2.93934C15.2206 2.65804 15.6022 2.5 16 2.5H19C19.663 2.5 20.2989 2.76339 20.7678 3.23223C21.2366 3.70107 21.5 4.33696 21.5 5V8C21.5 8.39782 21.342 8.77936 21.0607 9.06066C20.7794 9.34196 20.3978 9.5 20 9.5C19.6022 9.5 19.2206 9.34196 18.9393 9.06066C18.658 8.77936 18.5 8.39782 18.5 8V5.5ZM8 5.5H5.5V8C5.5 8.39782 5.34196 8.77936 5.06066 9.06066C4.77936 9.34196 4.39782 9.5 4 9.5C3.60218 9.5 3.22064 9.34196 2.93934 9.06066C2.65804 8.77936 2.5 8.39782 2.5 8V5C2.5 4.33696 2.76339 3.70107 3.23223 3.23223C3.70107 2.76339 4.33696 2.5 5 2.5H8C8.39782 2.5 8.77936 2.65804 9.06066 2.93934C9.34196 3.22064 9.5 3.60218 9.5 4C9.5 4.39782 9.34196 4.77936 9.06066 5.06066C8.77936 5.34196 8.39782 5.5 8 5.5ZM8 18.5H5.5V16C5.5 15.6022 5.34196 15.2206 5.06066 14.9393C4.77936 14.658 4.39782 14.5 4 14.5C3.60218 14.5 3.22064 14.658 2.93934 14.9393C2.65804 15.2206 2.5 15.6022 2.5 16V19C2.5 19.663 2.76339 20.2989 3.23223 20.7678C3.70107 21.2366 4.33696 21.5 5 21.5H8C8.39782 21.5 8.77936 21.342 9.06066 21.0607C9.34196 20.7794 9.5 20.3978 9.5 20C9.5 19.6022 9.34196 19.2206 9.06066 18.9393C8.77936 18.658 8.39782 18.5 8 18.5ZM16 18.5H18.5V16C18.5 15.6022 18.658 15.2206 18.9393 14.9393C19.2206 14.658 19.6022 14.5 20 14.5C20.3978 14.5 20.7794 14.658 21.0607 14.9393C21.342 15.2206 21.5 15.6022 21.5 16V19C21.5 19.663 21.2366 20.2989 20.7678 20.7678C20.2989 21.2366 19.663 21.5 19 21.5H16C15.6022 21.5 15.2206 21.342 14.9393 21.0607C14.658 20.7794 14.5 20.3978 14.5 20C14.5 19.6022 14.658 19.2206 14.9393 18.9393C15.2206 18.658 15.6022 18.5 16 18.5Z" fill="white"/>
</g>
<defs>
<clipPath id="clip0_1045_1876">
<rect width="24" height="24" fill="white"/>
</clipPath>
</defs>
</svg>
