<svg width="16" height="16" viewBox="0 0 16 16" fill="none" xmlns="http://www.w3.org/2000/svg">
<g clip-path="url(#clip0_1051_2278)">
<path fill-rule="evenodd" clip-rule="evenodd" d="M5.29324 8.70666C5.10598 8.51916 5.00079 8.265 5.00079 7.99999C5.00079 7.73499 5.10598 7.48083 5.29324 7.29333L9.06391 3.52133C9.25151 3.33382 9.50591 3.22851 9.77115 3.22858C10.0364 3.22864 10.2907 3.33406 10.4782 3.52166C10.6658 3.70926 10.7711 3.96366 10.771 4.2289C10.7709 4.49414 10.6655 4.74849 10.4779 4.93599L7.41391 7.99999L10.4779 11.064C10.6602 11.2525 10.7611 11.5051 10.7589 11.7673C10.7568 12.0295 10.6517 12.2803 10.4664 12.4658C10.2811 12.6513 10.0303 12.7566 9.76811 12.759C9.50592 12.7614 9.25327 12.6607 9.06458 12.4787L5.29258 8.70733L5.29324 8.70666Z" fill="white"/>
</g>
<defs>
<clipPath id="clip0_1051_2278">
<rect width="16" height="16" fill="white" transform="translate(16) rotate(90)"/>
</clipPath>
</defs>
</svg>
