<svg width="24" height="24" viewBox="0 0 24 24" fill="none" xmlns="http://www.w3.org/2000/svg">
<path d="M4.00098 8C3.71764 8 3.48031 7.90433 3.28898 7.713C3.09698 7.521 3.00098 7.28333 3.00098 7C3.00098 6.71667 3.09698 6.479 3.28898 6.287C3.48031 6.09567 3.71764 6 4.00098 6H14.001C14.2843 6 14.522 6.09567 14.714 6.287C14.9053 6.479 15.001 6.71667 15.001 7C15.001 7.28333 14.9053 7.521 14.714 7.713C14.522 7.90433 14.2843 8 14.001 8H4.00098ZM4.00098 12C3.71764 12 3.48031 11.904 3.28898 11.712C3.09698 11.5207 3.00098 11.2833 3.00098 11C3.00098 10.7167 3.09698 10.479 3.28898 10.287C3.48031 10.0957 3.71764 10 4.00098 10H14.001C14.2843 10 14.522 10.0957 14.714 10.287C14.9053 10.479 15.001 10.7167 15.001 11C15.001 11.2833 14.9053 11.5207 14.714 11.712C14.522 11.904 14.2843 12 14.001 12H4.00098ZM4.00098 16C3.71764 16 3.48031 15.904 3.28898 15.712C3.09698 15.5207 3.00098 15.2833 3.00098 15C3.00098 14.7167 3.09698 14.479 3.28898 14.287C3.48031 14.0957 3.71764 14 4.00098 14H10.001C10.2843 14 10.522 14.0957 10.714 14.287C10.9053 14.479 11.001 14.7167 11.001 15C11.001 15.2833 10.9053 15.5207 10.714 15.712C10.522 15.904 10.2843 16 10.001 16H4.00098Z" fill="white"/>
<path d="M17.6667 7.55538V14.2046C16.9357 13.7847 16.0336 13.6214 15.077 13.9558C14.0349 14.3291 13.2339 15.2545 13.0472 16.3433C12.961 16.8332 12.9932 17.3366 13.1413 17.8115C13.2894 18.2864 13.549 18.7189 13.8985 19.0729C14.2479 19.427 14.677 19.6922 15.15 19.8464C15.6229 20.0007 16.1259 20.0394 16.6168 19.9595C18.1411 19.7184 19.2221 18.3186 19.2221 16.771V9.11076H20.7775C21.6329 9.11076 22.3328 8.41084 22.3328 7.55538C22.3328 6.69992 21.6329 6 20.7775 6H19.2221C18.3666 6 17.6667 6.69992 17.6667 7.55538Z" fill="white"/>
</svg>
