<svg width="16" height="16" viewBox="0 0 16 16" fill="none" xmlns="http://www.w3.org/2000/svg">
<g clip-path="url(#clip0_1256_9663)">
<path d="M3.33333 6.66666C3.68696 6.66666 4.02609 6.80713 4.27614 7.05718C4.52619 7.30723 4.66667 7.64637 4.66667 7.99999C4.66667 8.35361 4.52619 8.69275 4.27614 8.9428C4.02609 9.19285 3.68696 9.33332 3.33333 9.33332C2.97971 9.33332 2.64057 9.19285 2.39052 8.9428C2.14048 8.69275 2 8.35361 2 7.99999C2 7.64637 2.14048 7.30723 2.39052 7.05718C2.64057 6.80713 2.97971 6.66666 3.33333 6.66666ZM8 6.66666C8.35362 6.66666 8.69276 6.80713 8.94281 7.05718C9.19286 7.30723 9.33333 7.64637 9.33333 7.99999C9.33333 8.35361 9.19286 8.69275 8.94281 8.9428C8.69276 9.19285 8.35362 9.33332 8 9.33332C7.64638 9.33332 7.30724 9.19285 7.05719 8.9428C6.80714 8.69275 6.66667 8.35361 6.66667 7.99999C6.66667 7.64637 6.80714 7.30723 7.05719 7.05718C7.30724 6.80713 7.64638 6.66666 8 6.66666ZM12.6667 6.66666C13.0203 6.66666 13.3594 6.80713 13.6095 7.05718C13.8595 7.30723 14 7.64637 14 7.99999C14 8.35361 13.8595 8.69275 13.6095 8.9428C13.3594 9.19285 13.0203 9.33332 12.6667 9.33332C12.313 9.33332 11.9739 9.19285 11.7239 8.9428C11.4738 8.69275 11.3333 8.35361 11.3333 7.99999C11.3333 7.64637 11.4738 7.30723 11.7239 7.05718C11.9739 6.80713 12.313 6.66666 12.6667 6.66666Z" fill="white"/>
</g>
<defs>
<clipPath id="clip0_1256_9663">
<rect width="16" height="16" fill="white"/>
</clipPath>
</defs>
</svg>
