<svg width="24" height="24" viewBox="0 0 24 24" fill="none" xmlns="http://www.w3.org/2000/svg">
<path d="M12.0007 5V13.55C11.0607 13.01 9.90074 12.8 8.67074 13.23C7.33074 13.71 6.30074 14.9 6.06074 16.3C5.94979 16.9299 5.99126 17.5773 6.18168 18.1879C6.3721 18.7986 6.70594 19.3547 7.15529 19.81C7.60463 20.2652 8.15643 20.6062 8.76454 20.8046C9.37265 21.0029 10.0194 21.0528 10.6507 20.95C12.6107 20.64 14.0007 18.84 14.0007 16.85V7H16.0007C17.1007 7 18.0007 6.1 18.0007 5C18.0007 3.9 17.1007 3 16.0007 3H14.0007C12.9007 3 12.0007 3.9 12.0007 5Z" fill="white"/>
</svg>
