<svg width="24" height="24" viewBox="0 0 24 24" fill="none" xmlns="http://www.w3.org/2000/svg">
<path d="M10.8 15.9L15.47 12.4C15.74 12.2 15.74 11.8 15.47 11.6L10.8 8.1C10.7257 8.04429 10.6374 8.01036 10.5449 8.00202C10.4524 7.99368 10.3594 8.01126 10.2764 8.05279C10.1933 8.09431 10.1235 8.15815 10.0747 8.23713C10.0259 8.31612 10 8.40714 10 8.5V15.5C10 15.91 10.47 16.15 10.8 15.9ZM12 2C6.48 2 2 6.48 2 12C2 17.52 6.48 22 12 22C17.52 22 22 17.52 22 12C22 6.48 17.52 2 12 2ZM12 20C7.59 20 4 16.41 4 12C4 7.59 7.59 4 12 4C16.41 4 20 7.59 20 12C20 16.41 16.41 20 12 20Z" fill="white"/>
</svg>
