<svg width="24" height="24" viewBox="0 0 24 24" fill="none" xmlns="http://www.w3.org/2000/svg">
<path fill-rule="evenodd" clip-rule="evenodd" d="M3.75098 8.25V3.75H8.25098V8.25H3.75098ZM1.50098 3C1.50098 2.60218 1.65901 2.22064 1.94032 1.93934C2.22162 1.65804 2.60315 1.5 3.00098 1.5H9.00098C9.3988 1.5 9.78033 1.65804 10.0616 1.93934C10.3429 2.22064 10.501 2.60218 10.501 3V9C10.501 9.39782 10.3429 9.77936 10.0616 10.0607C9.78033 10.342 9.3988 10.5 9.00098 10.5H3.00098C2.60315 10.5 2.22162 10.342 1.94032 10.0607C1.65901 9.77936 1.50098 9.39782 1.50098 9V3ZM13.501 3.375C13.501 3.07663 13.6195 2.79048 13.8305 2.5795C14.0415 2.36853 14.3276 2.25 14.626 2.25H21.376C21.6743 2.25 21.9605 2.36853 22.1715 2.5795C22.3824 2.79048 22.501 3.07663 22.501 3.375C22.501 3.67337 22.3824 3.95952 22.1715 4.1705C21.9605 4.38147 21.6743 4.5 21.376 4.5H14.626C14.3276 4.5 14.0415 4.38147 13.8305 4.1705C13.6195 3.95952 13.501 3.67337 13.501 3.375ZM14.626 7.5C14.3276 7.5 14.0415 7.61853 13.8305 7.8295C13.6195 8.04048 13.501 8.32663 13.501 8.625C13.501 8.92337 13.6195 9.20952 13.8305 9.4205C14.0415 9.63147 14.3276 9.75 14.626 9.75H21.376C21.6743 9.75 21.9605 9.63147 22.1715 9.4205C22.3824 9.20952 22.501 8.92337 22.501 8.625C22.501 8.32663 22.3824 8.04048 22.1715 7.8295C21.9605 7.61853 21.6743 7.5 21.376 7.5H14.626ZM3.75098 15.75V20.25H8.25098V15.75H3.75098ZM3.00098 13.5C2.60315 13.5 2.22162 13.658 1.94032 13.9393C1.65901 14.2206 1.50098 14.6022 1.50098 15V21C1.50098 21.3978 1.65901 21.7794 1.94032 22.0607C2.22162 22.342 2.60315 22.5 3.00098 22.5H9.00098C9.3988 22.5 9.78033 22.342 10.0616 22.0607C10.3429 21.7794 10.501 21.3978 10.501 21V15C10.501 14.6022 10.3429 14.2206 10.0616 13.9393C9.78033 13.658 9.3988 13.5 9.00098 13.5H3.00098ZM14.626 14.25C14.3276 14.25 14.0415 14.3685 13.8305 14.5795C13.6195 14.7905 13.501 15.0766 13.501 15.375C13.501 15.6734 13.6195 15.9595 13.8305 16.1705C14.0415 16.3815 14.3276 16.5 14.626 16.5H21.376C21.6743 16.5 21.9605 16.3815 22.1715 16.1705C22.3824 15.9595 22.501 15.6734 22.501 15.375C22.501 15.0766 22.3824 14.7905 22.1715 14.5795C21.9605 14.3685 21.6743 14.25 21.376 14.25H14.626ZM14.626 19.5C14.3276 19.5 14.0415 19.6185 13.8305 19.8295C13.6195 20.0405 13.501 20.3266 13.501 20.625C13.501 20.9234 13.6195 21.2095 13.8305 21.4205C14.0415 21.6315 14.3276 21.75 14.626 21.75H21.376C21.6743 21.75 21.9605 21.6315 22.1715 21.4205C22.3824 21.2095 22.501 20.9234 22.501 20.625C22.501 20.3266 22.3824 20.0405 22.1715 19.8295C21.9605 19.6185 21.6743 19.5 21.376 19.5H14.626Z" fill="white"/>
</svg>
