<svg width="24" height="24" viewBox="0 0 24 24" fill="none" xmlns="http://www.w3.org/2000/svg">
<g clip-path="url(#clip0_1045_1877)">
<path d="M8.46423 6.70701C8.27676 6.51948 8.17145 6.26518 8.17145 6.00001C8.17145 5.73485 8.27676 5.48054 8.46423 5.29301L11.2222 2.53501C11.3244 2.43281 11.4457 2.35174 11.5792 2.29643C11.7127 2.24112 11.8557 2.21265 12.0002 2.21265C12.1447 2.21265 12.2878 2.24112 12.4213 2.29643C12.5548 2.35174 12.6761 2.43281 12.7782 2.53501L15.5352 5.29301C15.6307 5.38526 15.7069 5.4956 15.7593 5.61761C15.8117 5.73961 15.8393 5.87083 15.8405 6.00361C15.8416 6.13639 15.8163 6.26807 15.7661 6.39097C15.7158 6.51386 15.6415 6.62551 15.5476 6.71941C15.4537 6.8133 15.3421 6.88755 15.2192 6.93783C15.0963 6.98811 14.9646 7.01342 14.8318 7.01226C14.6991 7.01111 14.5678 6.98352 14.4458 6.93111C14.3238 6.8787 14.2135 6.80252 14.1212 6.70701L13.0002 5.58601V11H18.4142L17.2932 9.87901C17.1056 9.6915 17.0001 9.43714 17 9.17187C16.9999 8.9066 17.1052 8.65215 17.2927 8.46451C17.4802 8.27687 17.7346 8.1714 17.9999 8.17131C18.2652 8.17121 18.5196 8.2765 18.7072 8.46401L21.4652 11.222C21.5674 11.3242 21.6485 11.4454 21.7038 11.5789C21.7591 11.7124 21.7876 11.8555 21.7876 12C21.7876 12.1445 21.7591 12.2876 21.7038 12.4211C21.6485 12.5546 21.5674 12.6759 21.4652 12.778L18.7072 15.536C18.5196 15.7235 18.2652 15.8288 17.9999 15.8287C17.7346 15.8286 17.4802 15.7232 17.2927 15.5355C17.1052 15.3479 16.9999 15.0934 17 14.8282C17.0001 14.5629 17.1056 14.3085 17.2932 14.121L18.4142 13H13.0002V18.414L14.1212 17.293C14.3098 17.1109 14.5624 17.0101 14.8246 17.0123C15.0868 17.0146 15.3376 17.1198 15.5231 17.3052C15.7085 17.4906 15.8136 17.7414 15.8159 18.0036C15.8182 18.2658 15.7174 18.5184 15.5352 18.707L12.7782 21.465C12.6761 21.5672 12.5548 21.6483 12.4213 21.7036C12.2878 21.7589 12.1447 21.7874 12.0002 21.7874C11.8557 21.7874 11.7127 21.7589 11.5792 21.7036C11.4457 21.6483 11.3244 21.5672 11.2222 21.465L8.46423 18.707C8.37139 18.6141 8.29775 18.5038 8.24753 18.3824C8.19731 18.2611 8.17148 18.131 8.17153 17.9997C8.17158 17.8683 8.19749 17.7383 8.2478 17.6169C8.29811 17.4956 8.37182 17.3854 8.46473 17.2925C8.55764 17.1997 8.66793 17.126 8.7893 17.0758C8.91067 17.0256 9.04074 16.9998 9.17209 16.9998C9.30343 16.9999 9.43349 17.0258 9.55482 17.0761C9.67615 17.1264 9.78639 17.2001 9.87923 17.293L10.9992 18.414V13H5.58723L6.70823 14.121C6.80114 14.2139 6.87486 14.3241 6.92516 14.4454C6.97547 14.5668 7.00139 14.6968 7.00143 14.8282C7.00148 14.9595 6.97566 15.0896 6.92543 15.2109C6.87521 15.3323 6.80158 15.4426 6.70873 15.5355C6.61589 15.6284 6.50565 15.7021 6.38432 15.7524C6.26299 15.8028 6.13293 15.8287 6.00159 15.8287C5.87024 15.8288 5.74017 15.8029 5.6188 15.7527C5.49743 15.7025 5.38714 15.6289 5.29423 15.536L2.53623 12.778C2.43403 12.6759 2.35296 12.5546 2.29765 12.4211C2.24234 12.2876 2.21387 12.1445 2.21387 12C2.21387 11.8555 2.24234 11.7124 2.29765 11.5789C2.35296 11.4454 2.43403 11.3242 2.53623 11.222L5.29423 8.46401C5.48201 8.27664 5.73652 8.17153 6.00179 8.17181C6.26706 8.17209 6.52136 8.27774 6.70873 8.46551C6.89611 8.65328 7.00122 8.9078 7.00093 9.17307C7.00065 9.43834 6.89501 9.69264 6.70723 9.88001L5.58623 11H11.0002V5.58701L9.87923 6.70701C9.78636 6.79999 9.67607 6.87375 9.55467 6.92407C9.43327 6.9744 9.30315 7.0003 9.17173 7.0003C9.04032 7.0003 8.91019 6.9744 8.78879 6.92407C8.66739 6.87375 8.55711 6.79999 8.46423 6.70701Z" fill="white"/>
</g>
<defs>
<clipPath id="clip0_1045_1877">
<rect width="24" height="24" fill="white"/>
</clipPath>
</defs>
</svg>
