<svg width="24" height="24" viewBox="0 0 24 24" fill="none" xmlns="http://www.w3.org/2000/svg">
<g clip-path="url(#clip0_1045_1957)">
<path fill-rule="evenodd" clip-rule="evenodd" d="M12.001 13C14.397 13 16.576 13.694 18.179 14.671C18.979 15.161 19.663 15.736 20.157 16.361C20.643 16.977 21.001 17.713 21.001 18.5C21.001 19.345 20.59 20.011 19.998 20.486C19.438 20.936 18.699 21.234 17.914 21.442C16.336 21.859 14.23 22 12.001 22C9.77198 22 7.66598 21.86 6.08798 21.442C5.30298 21.234 4.56398 20.936 4.00398 20.486C3.41098 20.01 3.00098 19.345 3.00098 18.5C3.00098 17.713 3.35898 16.977 3.84498 16.361C4.33898 15.736 5.02198 15.161 5.82298 14.671C7.42598 13.694 9.60598 13 12.001 13ZM12.001 15C9.97798 15 8.15798 15.59 6.86498 16.379C6.21798 16.773 5.72998 17.201 5.41498 17.601C5.09098 18.011 5.00098 18.321 5.00098 18.5C5.00098 18.622 5.03798 18.751 5.25598 18.926C5.50498 19.126 5.93798 19.333 6.59998 19.508C7.91798 19.858 9.81198 20 12.001 20C14.191 20 16.084 19.857 17.401 19.508C18.064 19.333 18.497 19.126 18.746 18.926C18.964 18.751 19.001 18.622 19.001 18.5C19.001 18.32 18.911 18.011 18.588 17.601C18.272 17.201 17.784 16.773 17.137 16.379C15.844 15.589 14.024 15 12.001 15ZM12.001 2C13.3271 2 14.5988 2.52678 15.5365 3.46447C16.4742 4.40215 17.001 5.67392 17.001 7C17.001 8.32608 16.4742 9.59785 15.5365 10.5355C14.5988 11.4732 13.3271 12 12.001 12C10.6749 12 9.40312 11.4732 8.46544 10.5355C7.52776 9.59785 7.00098 8.32608 7.00098 7C7.00098 5.67392 7.52776 4.40215 8.46544 3.46447C9.40312 2.52678 10.6749 2 12.001 2ZM12.001 4C11.607 4 11.2169 4.0776 10.8529 4.22836C10.4889 4.37913 10.1582 4.6001 9.87966 4.87868C9.60108 5.15726 9.3801 5.48797 9.22934 5.85195C9.07857 6.21593 9.00098 6.60603 9.00098 7C9.00098 7.39397 9.07857 7.78407 9.22934 8.14805C9.3801 8.51203 9.60108 8.84274 9.87966 9.12132C10.1582 9.3999 10.4889 9.62087 10.8529 9.77164C11.2169 9.9224 11.607 10 12.001 10C12.7966 10 13.5597 9.68393 14.1223 9.12132C14.6849 8.55871 15.001 7.79565 15.001 7C15.001 6.20435 14.6849 5.44129 14.1223 4.87868C13.5597 4.31607 12.7966 4 12.001 4Z" fill="white"/>
</g>
<defs>
<clipPath id="clip0_1045_1957">
<rect width="24" height="24" fill="white" transform="translate(0.000976562)"/>
</clipPath>
</defs>
</svg>
