<svg width="332" height="133" viewBox="0 0 332 133" fill="none" xmlns="http://www.w3.org/2000/svg">
<path d="M90.6314 82.5679C86.519 86.588 82.6469 89.0115 80.6357 90.1857C73.166 94.5475 64.9549 96.7591 56.2313 96.7591C47.4211 96.7591 39.1884 94.5475 31.7608 90.1857C24.3344 85.8273 18.3588 79.8517 14.0004 72.4253C9.63863 64.9989 7.42698 56.7661 7.42698 47.956C7.42698 45.184 7.65703 42.4519 8.10915 39.7767C6.70381 44.2946 6 48.9934 6 53.8723C6 62.5993 8.15926 70.643 12.4812 78C16.8009 85.3592 22.6397 91.1992 29.999 95.5189C37.356 99.8408 45.3997 102 54.1267 102C62.7671 102 70.7892 99.8408 78.1906 95.5189C85.5897 91.1992 91.4935 85.3604 95.9009 78C97.5055 75.3203 98.8175 72.5483 99.8379 69.6864C99.6044 70.2638 99.1386 71.3639 98.5863 72.4298C95.7927 77.8223 90.6325 82.5679 90.6314 82.5679Z" fill="url(#paint0_linear_1256_9710)"/>
<path d="M104.145 47.9035C104.138 42.7456 103.291 38.7562 102.83 36.8726C101.748 32.4504 100.001 28.1922 97.599 24.1345C93.2599 16.806 87.3641 10.8885 80.0743 6.54611C72.7766 2.20254 64.7591 0 56.2416 0C47.723 0 39.7044 2.20254 32.4089 6.54611C25.1157 10.8897 19.2609 16.8083 15.0073 24.1379C13.5541 26.6411 12.3321 29.2457 11.3743 31.8787C11.3595 31.9072 11.3447 31.9356 11.3299 31.9641L11.3356 31.9664C9.4975 37.0331 8.56592 42.4108 8.56592 47.9536C8.56592 56.5587 10.7252 64.5979 14.9833 71.8467C19.2426 79.1034 25.0815 84.9423 32.3383 89.2016C39.5882 93.4598 47.6262 95.619 56.2314 95.619C64.75 95.619 72.7686 93.4598 80.0618 89.2016C83.6663 87.0981 86.9302 84.6086 89.8343 81.7535C93.6881 77.9657 96.1629 74.2815 97.6104 71.8432C99.4997 68.6602 100.749 65.7288 101.582 63.4009C101.588 63.3668 101.595 63.3326 101.602 63.2984C101.6 63.3178 101.597 63.3372 101.595 63.3565C102.916 59.4469 104.153 54.1671 104.145 47.9035ZM74.4712 66.0055C72.4862 69.6658 69.7507 72.5732 66.2624 74.7279C62.7729 76.8827 58.9077 77.96 54.6677 77.96C50.2888 77.96 46.3051 76.8827 42.7132 74.7279C39.1224 72.5732 36.2821 69.6487 34.1969 65.9542C32.1094 62.2598 31.0673 58.2249 31.0673 53.846C31.0673 49.3316 32.0934 45.226 34.1456 41.5327C36.1978 37.8383 38.9846 34.9137 42.5082 32.759C46.0307 30.6043 49.9472 29.527 54.2577 29.527C58.5683 29.527 62.4825 30.6043 66.0073 32.759C69.5297 34.9137 72.3176 37.8383 74.3698 41.5327C76.422 45.2272 77.4481 49.3316 77.4481 53.846C77.447 58.2932 76.4551 62.3464 74.4712 66.0055ZM95.9032 29.872C91.4959 22.4285 85.5921 16.5042 78.1918 12.0969C70.7904 7.6918 62.7684 5.48698 54.1279 5.48698C45.4852 5.48698 37.4631 7.69066 30.064 12.0969C24.6442 15.3244 20.0501 19.3673 16.2828 24.2222C20.4122 17.2878 26.0313 11.6721 32.9931 7.52552C40.1098 3.28786 47.9326 1.13999 56.2428 1.13999C64.5518 1.13999 72.3734 3.289 79.4924 7.52552C86.6159 11.7689 92.3785 17.5531 96.6196 24.7153C100.055 30.5189 101.347 35.5925 101.731 37.1755C102.181 39.0295 102.978 42.839 103.006 47.9035C103.016 49.7234 102.842 51.6685 102.493 55.2661C102.505 54.8026 102.512 54.338 102.512 53.871C102.512 45.316 100.308 37.3156 95.9032 29.872Z" fill="url(#paint1_linear_1256_9710)"/>
<path d="M97.61 71.8432C96.1625 74.2815 93.6878 77.9656 89.8339 81.7534C86.9298 84.6085 83.6647 87.0981 80.0614 89.2015C72.7682 93.4597 64.7507 95.6189 56.231 95.6189C47.6258 95.6189 39.5867 93.4597 32.3379 89.2015C25.0811 84.9422 19.2422 79.1033 14.9829 71.8466C10.7248 64.5967 8.56553 56.5587 8.56553 47.9535C8.56553 42.4119 9.49711 37.0331 11.3352 31.9663L11.3295 31.9641C10.0107 34.5048 8.93793 37.1082 8.10771 39.7743C7.65558 42.4494 7.42554 45.1815 7.42554 47.9535C7.42554 56.7637 9.63718 64.9964 13.999 72.4228C18.3574 79.8493 24.3329 85.8248 31.7594 90.1832C39.1858 94.545 47.4185 96.7567 56.2298 96.7567C64.9534 96.7567 73.1645 94.545 80.6343 90.1832C82.6455 89.0091 86.5164 86.5856 90.6299 82.5654C90.6299 82.5654 95.7912 77.8199 98.586 72.4263C99.1383 71.3603 99.6029 70.2602 99.8375 69.6828C100.568 67.634 101.15 65.5396 101.581 63.3986C100.749 65.7287 99.5004 68.6601 97.61 71.8432Z" fill="white"/>
<path d="M191.944 42.248C197.405 42.248 201.757 43.784 205 46.856C208.328 49.928 210.077 53.9813 210.248 59.016V101H192.456V66.44C192.285 63.624 191.816 61.5333 191.048 60.168C190.28 58.7173 188.787 57.9067 186.568 57.736C182.387 57.736 179.101 59.784 176.712 63.88C174.408 67.8907 173.256 72.6267 173.256 78.088V101H155.336V66.44C155.165 63.624 154.653 61.5333 153.8 60.168C152.947 58.7173 151.368 57.9067 149.064 57.736C145.053 57.736 141.896 59.784 139.592 63.88C137.288 67.8907 136.136 72.5413 136.136 77.832V101H118.216V45.064H134.472L135.752 53.896C140.275 46.1307 147.016 42.248 155.976 42.248C160.499 42.248 164.211 43.1867 167.112 45.064C170.099 46.856 172.147 49.544 173.256 53.128C175.645 49.8 178.461 47.1547 181.704 45.192C185.032 43.2293 188.445 42.248 191.944 42.248ZM267.628 42.376C272.919 42.376 277.313 43.9547 280.812 47.112C284.396 50.2693 286.231 54.28 286.316 59.144V101H268.396V65.8C268.14 60.3387 265.409 57.608 260.204 57.608C256.108 57.608 252.823 59.528 250.348 63.368C247.873 67.208 246.636 72.1573 246.636 78.216V101H228.716V45.064H244.972L246.252 54.024C248.3 50.3547 251.116 47.496 254.7 45.448C258.369 43.4 262.679 42.376 267.628 42.376ZM322.636 45.064V101H304.716V45.064H322.636ZM304.332 25.224C304.332 22.664 305.313 20.5307 307.276 18.824C309.324 17.032 311.628 16.136 314.188 16.136C316.663 16.136 318.881 17.032 320.844 18.824C322.807 20.5307 323.788 22.664 323.788 25.224C323.788 27.784 322.807 29.9173 320.844 31.624C318.881 33.3307 316.663 34.184 314.188 34.184C311.628 34.184 309.324 33.3307 307.276 31.624C305.313 29.9173 304.332 27.784 304.332 25.224Z" fill="url(#paint2_linear_1256_9710)"/>
<defs>
<linearGradient id="paint0_linear_1256_9710" x1="6" y1="31.1862" x2="106.891" y2="51.3046" gradientUnits="userSpaceOnUse">
<stop stop-color="#F7CA47"/>
<stop offset="1" stop-color="#C28000"/>
</linearGradient>
<linearGradient id="paint1_linear_1256_9710" x1="8.56592" y1="-13.2011" x2="113.581" y2="0.678774" gradientUnits="userSpaceOnUse">
<stop stop-color="#F7CA47"/>
<stop offset="1" stop-color="#C28000"/>
</linearGradient>
<linearGradient id="paint2_linear_1256_9710" x1="-1.2764e-06" y1="-12.6716" x2="332.088" y2="101.221" gradientUnits="userSpaceOnUse">
<stop stop-color="#F7CA47"/>
<stop offset="1" stop-color="#C28000"/>
</linearGradient>
</defs>
</svg>
