<svg width="332" height="133" viewBox="0 0 332 133" fill="none" xmlns="http://www.w3.org/2000/svg">
<path d="M90.6314 82.568C86.519 86.5882 82.6469 89.0116 80.6357 90.1858C73.166 94.5476 64.9549 96.7592 56.2313 96.7592C47.4211 96.7592 39.1884 94.5476 31.7608 90.1858C24.3344 85.8274 18.3588 79.8519 14.0004 72.4254C9.63863 64.999 7.42698 56.7662 7.42698 47.9561C7.42698 45.1841 7.65703 42.452 8.10915 39.7769C6.70381 44.2947 6 48.9936 6 53.8724C6 62.5994 8.15926 70.6431 12.4812 78.0001C16.8009 85.3593 22.6397 91.1994 29.999 95.519C37.356 99.841 45.3997 102 54.1267 102C62.7671 102 70.7892 99.841 78.1906 95.519C85.5897 91.1994 91.4935 85.3605 95.9009 78.0001C97.5055 75.3204 98.8175 72.5484 99.8379 69.6865C99.6044 70.2639 99.1386 71.364 98.5863 72.43C95.7927 77.8224 90.6325 82.568 90.6314 82.568Z" fill="url(#paint0_linear_1059_16972)"/>
<path d="M104.145 47.9035C104.138 42.7456 103.291 38.7562 102.83 36.8726C101.748 32.4504 100.001 28.1922 97.599 24.1345C93.2599 16.806 87.3641 10.8885 80.0743 6.54611C72.7766 2.20254 64.7591 0 56.2416 0C47.723 0 39.7044 2.20254 32.4089 6.54611C25.1157 10.8897 19.2609 16.8083 15.0073 24.1379C13.5541 26.6411 12.3321 29.2457 11.3743 31.8787C11.3595 31.9072 11.3447 31.9356 11.3299 31.9641L11.3356 31.9664C9.4975 37.0331 8.56592 42.4108 8.56592 47.9536C8.56592 56.5587 10.7252 64.5979 14.9833 71.8467C19.2426 79.1034 25.0815 84.9423 32.3383 89.2016C39.5882 93.4598 47.6262 95.619 56.2314 95.619C64.75 95.619 72.7686 93.4598 80.0618 89.2016C83.6663 87.0981 86.9302 84.6086 89.8343 81.7535C93.6881 77.9657 96.1629 74.2815 97.6104 71.8432C99.4997 68.6602 100.749 65.7288 101.582 63.4009C101.588 63.3668 101.595 63.3326 101.602 63.2984C101.6 63.3178 101.597 63.3372 101.595 63.3565C102.916 59.4469 104.153 54.1671 104.145 47.9035ZM74.4712 66.0055C72.4862 69.6658 69.7507 72.5732 66.2624 74.728C62.7729 76.8827 58.9077 77.96 54.6677 77.96C50.2888 77.96 46.3051 76.8827 42.7132 74.728C39.1224 72.5732 36.2821 69.6487 34.1969 65.9542C32.1094 62.2598 31.0673 58.2249 31.0673 53.846C31.0673 49.3316 32.0934 45.226 34.1456 41.5327C36.1978 37.8383 38.9846 34.9137 42.5082 32.759C46.0307 30.6043 49.9472 29.527 54.2577 29.527C58.5683 29.527 62.4825 30.6043 66.0073 32.759C69.5297 34.9137 72.3176 37.8383 74.3698 41.5327C76.422 45.2272 77.4481 49.3316 77.4481 53.846C77.447 58.2932 76.4551 62.3464 74.4712 66.0055ZM95.9032 29.872C91.4959 22.4285 85.5921 16.5042 78.1918 12.0969C70.7904 7.6918 62.7684 5.48698 54.1279 5.48698C45.4852 5.48698 37.4631 7.69066 30.064 12.0969C24.6442 15.3244 20.0501 19.3673 16.2828 24.2222C20.4122 17.2878 26.0313 11.6721 32.9931 7.52552C40.1098 3.28786 47.9326 1.13999 56.2428 1.13999C64.5518 1.13999 72.3734 3.289 79.4924 7.52552C86.6159 11.7689 92.3785 17.5531 96.6196 24.7153C100.055 30.5189 101.347 35.5925 101.731 37.1755C102.181 39.0295 102.978 42.839 103.006 47.9035C103.016 49.7234 102.842 51.6685 102.493 55.2661C102.505 54.8026 102.512 54.338 102.512 53.871C102.512 45.316 100.308 37.3156 95.9032 29.872Z" fill="url(#paint1_linear_1059_16972)"/>
<path d="M97.61 71.843C96.1625 74.2813 93.6878 77.9654 89.8339 81.7533C86.9298 84.6084 83.6647 87.0979 80.0614 89.2013C72.7682 93.4595 64.7507 95.6188 56.231 95.6188C47.6258 95.6188 39.5867 93.4595 32.3379 89.2013C25.0811 84.942 19.2422 79.1032 14.9829 71.8464C10.7248 64.5965 8.56553 56.5585 8.56553 47.9533C8.56553 42.4117 9.49711 37.0329 11.3352 31.9661L11.3295 31.9639C10.0107 34.5046 8.93793 37.1081 8.10771 39.7741C7.65558 42.4493 7.42554 45.1814 7.42554 47.9533C7.42554 56.7635 9.63718 64.9962 13.999 72.4227C18.3574 79.8491 24.3329 85.8247 31.7594 90.183C39.1858 94.5448 47.4185 96.7565 56.2298 96.7565C64.9534 96.7565 73.1645 94.5448 80.6343 90.183C82.6455 89.0089 86.5164 86.5854 90.6299 82.5653C90.6299 82.5653 95.7912 77.8197 98.586 72.4261C99.1383 71.3601 99.6029 70.26 99.8375 69.6826C100.568 67.6338 101.149 65.5395 101.581 63.3984C100.749 65.7285 99.5005 68.6599 97.61 71.843Z" fill="white"/>
<path d="M134.472 45.064L135.88 54.92L135.624 54.152C137.843 50.3973 140.616 47.496 143.944 45.448C147.272 43.3147 151.283 42.248 155.976 42.248C159.048 42.248 161.736 42.6747 164.04 43.528C166.429 44.3813 168.435 45.6613 170.056 47.368C171.677 48.9893 172.787 51.1227 173.384 53.768L172.744 53.896C175.133 50.3973 177.992 47.5813 181.32 45.448C184.733 43.3147 188.275 42.248 191.944 42.248C197.491 42.248 201.885 43.8267 205.128 46.984C208.456 50.056 210.163 54.0667 210.248 59.016V101H192.456V66.44C192.371 63.9653 191.987 61.96 191.304 60.424C190.621 58.8027 189.043 57.9067 186.568 57.736C183.667 57.736 181.192 58.76 179.144 60.808C177.181 62.7707 175.688 65.3307 174.664 68.488C173.725 71.56 173.256 74.76 173.256 78.088V101H155.336V66.44C155.251 63.9653 154.781 61.96 153.928 60.424C153.16 58.8027 151.539 57.9067 149.064 57.736C146.248 57.736 143.859 58.76 141.896 60.808C140.019 62.7707 138.568 65.288 137.544 68.36C136.605 71.432 136.136 74.5893 136.136 77.832V101H118.216V45.064H134.472ZM244.972 45.064L246.38 55.048L246.124 54.152C248.087 50.6533 250.86 47.8373 254.444 45.704C258.028 43.4853 262.423 42.376 267.628 42.376C272.919 42.376 277.313 43.9547 280.812 47.112C284.396 50.184 286.231 54.1947 286.316 59.144V101H268.396V65.8C268.311 63.3253 267.628 61.3627 266.348 59.912C265.153 58.376 263.105 57.608 260.204 57.608C257.473 57.608 255.084 58.504 253.036 60.296C250.988 62.088 249.409 64.52 248.3 67.592C247.191 70.664 246.636 74.2053 246.636 78.216V101H228.716V45.064H244.972ZM304.716 45.064H322.636V101H304.716V45.064ZM304.332 25.224C304.332 22.5787 305.356 20.4027 307.404 18.696C309.537 16.9893 311.799 16.136 314.188 16.136C316.577 16.136 318.753 16.9893 320.716 18.696C322.764 20.4027 323.788 22.5787 323.788 25.224C323.788 27.8693 322.764 30.0453 320.716 31.752C318.753 33.3733 316.577 34.184 314.188 34.184C311.799 34.184 309.537 33.3733 307.404 31.752C305.356 30.0453 304.332 27.8693 304.332 25.224Z" fill="url(#paint2_linear_1059_16972)"/>
<defs>
<linearGradient id="paint0_linear_1059_16972" x1="6" y1="31.1863" x2="106.891" y2="51.3047" gradientUnits="userSpaceOnUse">
<stop stop-color="#F7CA47"/>
<stop offset="1" stop-color="#C28000"/>
</linearGradient>
<linearGradient id="paint1_linear_1059_16972" x1="8.56592" y1="-13.2011" x2="113.581" y2="0.678774" gradientUnits="userSpaceOnUse">
<stop stop-color="#F7CA47"/>
<stop offset="1" stop-color="#C28000"/>
</linearGradient>
<linearGradient id="paint2_linear_1059_16972" x1="-1.2764e-06" y1="-12.6716" x2="332.088" y2="101.221" gradientUnits="userSpaceOnUse">
<stop stop-color="#F7CA47"/>
<stop offset="1" stop-color="#C28000"/>
</linearGradient>
</defs>
</svg>
