<svg width="83" height="33" viewBox="0 0 83 33" fill="none" xmlns="http://www.w3.org/2000/svg">
<path d="M22.728 20.2226C21.7208 21.2073 20.7725 21.8008 20.2799 22.0884C18.4504 23.1567 16.4393 23.6984 14.3027 23.6984C12.1449 23.6984 10.1285 23.1567 8.30936 22.0884C6.49047 21.0209 5.02693 19.5574 3.95947 17.7385C2.89118 15.9196 2.3495 13.9032 2.3495 11.7455C2.3495 11.0665 2.40584 10.3974 2.51658 9.74219C2.17238 10.8487 2 11.9996 2 13.1945C2 15.3319 2.52885 17.302 3.58738 19.1039C4.64536 20.9063 6.07542 22.3366 7.87786 23.3946C9.67974 24.4532 11.6498 24.982 13.7872 24.982C15.9035 24.982 17.8682 24.4532 19.681 23.3946C21.4932 22.3366 22.9392 20.9066 24.0186 19.1039C24.4116 18.4475 24.733 17.7686 24.9829 17.0677C24.9257 17.2091 24.8116 17.4785 24.6763 17.7396C23.9921 19.0604 22.7283 20.2226 22.728 20.2226Z" fill="url(#paint0_linear_1256_9711)"/>
<path d="M26.0378 11.7326C26.0361 10.4693 25.8286 9.49222 25.7156 9.03087C25.4506 7.94779 25.0228 6.90488 24.4345 5.91105C23.3718 4.11615 21.9278 2.66684 20.1423 1.60328C18.355 0.539448 16.3913 0 14.3052 0C12.2188 0 10.2549 0.539448 8.46807 1.60328C6.68181 2.66712 5.24784 4.11671 4.20604 5.91189C3.85013 6.52498 3.55083 7.16289 3.31626 7.80777C3.31263 7.81474 3.309 7.82172 3.30538 7.82869L3.30677 7.82925C2.85658 9.0702 2.62842 10.3873 2.62842 11.7448C2.62842 13.8524 3.15727 15.8214 4.20018 17.5968C5.24337 19.3741 6.67344 20.8042 8.45077 21.8474C10.2264 22.8903 12.1951 23.4191 14.3027 23.4191C16.3891 23.4191 18.353 22.8903 20.1393 21.8474C21.0221 21.3322 21.8215 20.7224 22.5328 20.0232C23.4767 19.0955 24.0828 18.1931 24.4373 17.5959C24.9 16.8163 25.206 16.0984 25.4099 15.5282C25.4116 15.5199 25.4133 15.5115 25.4149 15.5031C25.4144 15.5079 25.4138 15.5126 25.4133 15.5174C25.7368 14.5598 26.0397 13.2667 26.0378 11.7326ZM18.77 16.1661C18.2838 17.0626 17.6139 17.7747 16.7595 18.3025C15.9049 18.8302 14.9582 19.0941 13.9197 19.0941C12.8472 19.0941 11.8716 18.8302 10.9918 18.3025C10.1124 17.7747 9.4167 17.0584 8.90598 16.1536C8.39471 15.2487 8.13949 14.2605 8.13949 13.188C8.13949 12.0823 8.3908 11.0768 8.89343 10.1722C9.39606 9.2674 10.0786 8.55111 10.9416 8.02338C11.8043 7.49565 12.7636 7.23178 13.8193 7.23178C14.8751 7.23178 15.8337 7.49565 16.697 8.02338C17.5597 8.55111 18.2426 9.2674 18.7452 10.1722C19.2478 11.0771 19.4991 12.0823 19.4991 13.188C19.4989 14.2772 19.2559 15.2699 18.77 16.1661ZM24.0192 7.3163C22.9397 5.49322 21.4938 4.04223 19.6813 2.96278C17.8685 1.88388 15.9037 1.34388 13.7875 1.34388C11.6707 1.34388 9.70595 1.8836 7.89375 2.96278C6.56633 3.75326 5.44113 4.74346 4.51844 5.93253C5.52983 4.23414 6.90607 2.85874 8.61116 1.84316C10.3542 0.805267 12.2701 0.279208 14.3055 0.279208C16.3405 0.279208 18.2562 0.805546 19.9998 1.84316C21.7445 2.88245 23.1559 4.29913 24.1946 6.05331C25.0361 7.47473 25.3524 8.71735 25.4464 9.10507C25.5566 9.55916 25.7519 10.4922 25.7588 11.7326C25.7614 12.1783 25.7187 12.6547 25.6331 13.5358C25.6361 13.4223 25.6378 13.3085 25.6378 13.1942C25.6378 11.0988 25.0981 9.13937 24.0192 7.3163Z" fill="url(#paint1_linear_1256_9711)"/>
<path d="M24.4372 17.596C24.0827 18.1932 23.4766 19.0955 22.5327 20.0232C21.8214 20.7225 21.0217 21.3322 20.1392 21.8474C18.3529 22.8903 16.3893 23.4192 14.3026 23.4192C12.195 23.4192 10.2261 22.8903 8.45068 21.8474C6.67335 20.8042 5.24328 19.3741 4.20009 17.5968C3.15718 15.8212 2.62833 13.8525 2.62833 11.7449C2.62833 10.3876 2.85649 9.07025 3.30668 7.82929L3.30529 7.82874C2.98229 8.45102 2.71954 9.08866 2.5162 9.74163C2.40546 10.3968 2.34912 11.066 2.34912 11.7449C2.34912 13.9027 2.8908 15.9191 3.9591 17.738C5.02656 19.5568 6.49009 21.0204 8.30899 22.0878C10.1279 23.1561 12.1443 23.6978 14.3023 23.6978C16.4389 23.6978 18.45 23.1561 20.2795 22.0878C20.7721 21.8003 21.7201 21.2067 22.7276 20.2221C22.7276 20.2221 23.9917 19.0598 24.6762 17.7388C24.8115 17.4777 24.9253 17.2083 24.9828 17.0668C25.1616 16.5651 25.3041 16.0521 25.4098 15.5277C25.2059 16.0984 24.9002 16.8164 24.4372 17.596Z" fill="white"/>
<path d="M47.986 10.312C49.3513 10.312 50.4393 10.696 51.25 11.464C52.082 12.232 52.5193 13.2453 52.562 14.504V25H48.114V16.36C48.0713 15.656 47.954 15.1333 47.762 14.792C47.57 14.4293 47.1967 14.2267 46.642 14.184C45.5967 14.184 44.7753 14.696 44.178 15.72C43.602 16.7227 43.314 17.9067 43.314 19.272V25H38.834V16.36C38.7913 15.656 38.6633 15.1333 38.45 14.792C38.2367 14.4293 37.842 14.2267 37.266 14.184C36.2633 14.184 35.474 14.696 34.898 15.72C34.322 16.7227 34.034 17.8853 34.034 19.208V25H29.554V11.016H33.618L33.938 13.224C35.0687 11.2827 36.754 10.312 38.994 10.312C40.1247 10.312 41.0527 10.5467 41.778 11.016C42.5247 11.464 43.0367 12.136 43.314 13.032C43.9113 12.2 44.6153 11.5387 45.426 11.048C46.258 10.5573 47.1113 10.312 47.986 10.312ZM66.907 10.344C68.2297 10.344 69.3283 10.7387 70.203 11.528C71.099 12.3173 71.5577 13.32 71.579 14.536V25H67.099V16.2C67.035 14.8347 66.3523 14.152 65.051 14.152C64.027 14.152 63.2057 14.632 62.587 15.592C61.9683 16.552 61.659 17.7893 61.659 19.304V25H57.179V11.016H61.243L61.563 13.256C62.075 12.3387 62.779 11.624 63.675 11.112C64.5923 10.6 65.6697 10.344 66.907 10.344ZM80.659 11.016V25H76.179V11.016H80.659ZM76.083 6.056C76.083 5.416 76.3283 4.88267 76.819 4.456C77.331 4.008 77.907 3.784 78.547 3.784C79.1657 3.784 79.7203 4.008 80.211 4.456C80.7017 4.88267 80.947 5.416 80.947 6.056C80.947 6.696 80.7017 7.22933 80.211 7.656C79.7203 8.08267 79.1657 8.296 78.547 8.296C77.907 8.296 77.331 8.08267 76.819 7.656C76.3283 7.22933 76.083 6.696 76.083 6.056Z" fill="url(#paint2_linear_1256_9711)"/>
<defs>
<linearGradient id="paint0_linear_1256_9711" x1="2" y1="7.63819" x2="26.7104" y2="12.5656" gradientUnits="userSpaceOnUse">
<stop stop-color="#F7CA47"/>
<stop offset="1" stop-color="#C28000"/>
</linearGradient>
<linearGradient id="paint1_linear_1256_9711" x1="2.62842" y1="-3.23323" x2="28.3488" y2="0.166246" gradientUnits="userSpaceOnUse">
<stop stop-color="#F7CA47"/>
<stop offset="1" stop-color="#C28000"/>
</linearGradient>
<linearGradient id="paint2_linear_1256_9711" x1="-3.191e-07" y1="-3.4179" x2="83.022" y2="25.0553" gradientUnits="userSpaceOnUse">
<stop stop-color="#F7CA47"/>
<stop offset="1" stop-color="#C28000"/>
</linearGradient>
</defs>
</svg>
