<svg width="16" height="16" viewBox="0 0 16 16" fill="none" xmlns="http://www.w3.org/2000/svg">
<g clip-path="url(#clip0_1051_2334)">
<path d="M3.33333 6.66669C3.68696 6.66669 4.02609 6.80716 4.27614 7.05721C4.52619 7.30726 4.66667 7.6464 4.66667 8.00002C4.66667 8.35364 4.52619 8.69278 4.27614 8.94283C4.02609 9.19288 3.68696 9.33335 3.33333 9.33335C2.97971 9.33335 2.64057 9.19288 2.39052 8.94283C2.14048 8.69278 2 8.35364 2 8.00002C2 7.6464 2.14048 7.30726 2.39052 7.05721C2.64057 6.80716 2.97971 6.66669 3.33333 6.66669ZM8 6.66669C8.35362 6.66669 8.69276 6.80716 8.94281 7.05721C9.19286 7.30726 9.33333 7.6464 9.33333 8.00002C9.33333 8.35364 9.19286 8.69278 8.94281 8.94283C8.69276 9.19288 8.35362 9.33335 8 9.33335C7.64638 9.33335 7.30724 9.19288 7.05719 8.94283C6.80714 8.69278 6.66667 8.35364 6.66667 8.00002C6.66667 7.6464 6.80714 7.30726 7.05719 7.05721C7.30724 6.80716 7.64638 6.66669 8 6.66669ZM12.6667 6.66669C13.0203 6.66669 13.3594 6.80716 13.6095 7.05721C13.8595 7.30726 14 7.6464 14 8.00002C14 8.35364 13.8595 8.69278 13.6095 8.94283C13.3594 9.19288 13.0203 9.33335 12.6667 9.33335C12.313 9.33335 11.9739 9.19288 11.7239 8.94283C11.4738 8.69278 11.3333 8.35364 11.3333 8.00002C11.3333 7.6464 11.4738 7.30726 11.7239 7.05721C11.9739 6.80716 12.313 6.66669 12.6667 6.66669Z" fill="white"/>
</g>
<defs>
<clipPath id="clip0_1051_2334">
<rect width="16" height="16" fill="white"/>
</clipPath>
</defs>
</svg>
