<svg width="24" height="24" viewBox="0 0 24 24" fill="none" xmlns="http://www.w3.org/2000/svg">
<path fill-rule="evenodd" clip-rule="evenodd" d="M3.75 8.25V3.75H8.25V8.25H3.75ZM1.5 3C1.5 2.60218 1.65804 2.22064 1.93934 1.93934C2.22064 1.65804 2.60218 1.5 3 1.5H9C9.39782 1.5 9.77935 1.65804 10.0607 1.93934C10.342 2.22064 10.5 2.60218 10.5 3V9C10.5 9.39782 10.342 9.77935 10.0607 10.0607C9.77935 10.342 9.39782 10.5 9 10.5H3C2.60218 10.5 2.22064 10.342 1.93934 10.0607C1.65804 9.77935 1.5 9.39782 1.5 9V3ZM13.5 3.375C13.5 3.07663 13.6185 2.79048 13.8295 2.5795C14.0405 2.36853 14.3266 2.25 14.625 2.25H21.375C21.6734 2.25 21.9595 2.36853 22.1705 2.5795C22.3815 2.79048 22.5 3.07663 22.5 3.375C22.5 3.67337 22.3815 3.95952 22.1705 4.1705C21.9595 4.38147 21.6734 4.5 21.375 4.5H14.625C14.3266 4.5 14.0405 4.38147 13.8295 4.1705C13.6185 3.95952 13.5 3.67337 13.5 3.375ZM14.625 7.5C14.3266 7.5 14.0405 7.61853 13.8295 7.8295C13.6185 8.04048 13.5 8.32663 13.5 8.625C13.5 8.92337 13.6185 9.20952 13.8295 9.4205C14.0405 9.63147 14.3266 9.75 14.625 9.75H21.375C21.6734 9.75 21.9595 9.63147 22.1705 9.4205C22.3815 9.20952 22.5 8.92337 22.5 8.625C22.5 8.32663 22.3815 8.04048 22.1705 7.8295C21.9595 7.61853 21.6734 7.5 21.375 7.5H14.625ZM3.75 15.75V20.25H8.25V15.75H3.75ZM3 13.5C2.60218 13.5 2.22064 13.658 1.93934 13.9393C1.65804 14.2206 1.5 14.6022 1.5 15V21C1.5 21.3978 1.65804 21.7794 1.93934 22.0607C2.22064 22.342 2.60218 22.5 3 22.5H9C9.39782 22.5 9.77935 22.342 10.0607 22.0607C10.342 21.7794 10.5 21.3978 10.5 21V15C10.5 14.6022 10.342 14.2206 10.0607 13.9393C9.77935 13.658 9.39782 13.5 9 13.5H3ZM14.625 14.25C14.3266 14.25 14.0405 14.3685 13.8295 14.5795C13.6185 14.7905 13.5 15.0766 13.5 15.375C13.5 15.6734 13.6185 15.9595 13.8295 16.1705C14.0405 16.3815 14.3266 16.5 14.625 16.5H21.375C21.6734 16.5 21.9595 16.3815 22.1705 16.1705C22.3815 15.9595 22.5 15.6734 22.5 15.375C22.5 15.0766 22.3815 14.7905 22.1705 14.5795C21.9595 14.3685 21.6734 14.25 21.375 14.25H14.625ZM14.625 19.5C14.3266 19.5 14.0405 19.6185 13.8295 19.8295C13.6185 20.0405 13.5 20.3266 13.5 20.625C13.5 20.9234 13.6185 21.2095 13.8295 21.4205C14.0405 21.6315 14.3266 21.75 14.625 21.75H21.375C21.6734 21.75 21.9595 21.6315 22.1705 21.4205C22.3815 21.2095 22.5 20.9234 22.5 20.625C22.5 20.3266 22.3815 20.0405 22.1705 19.8295C21.9595 19.6185 21.6734 19.5 21.375 19.5H14.625Z" fill="white"/>
</svg>
