<svg width="16" height="16" viewBox="0 0 16 16" fill="none" xmlns="http://www.w3.org/2000/svg">
<g clip-path="url(#clip0_1051_2277)">
<path fill-rule="evenodd" clip-rule="evenodd" d="M10.7068 7.29334C10.894 7.48084 10.9992 7.735 10.9992 8C10.9992 8.26501 10.894 8.51917 10.7068 8.70667L6.93609 12.4787C6.74849 12.6662 6.49409 12.7715 6.22885 12.7714C5.96361 12.7714 5.70926 12.6659 5.52176 12.4783C5.33425 12.2907 5.22894 12.0363 5.229 11.7711C5.22907 11.5059 5.33449 11.2515 5.52209 11.064L8.58609 8.00001L5.52209 4.936C5.33984 4.74749 5.23892 4.49493 5.24108 4.23273C5.24323 3.97054 5.34828 3.71967 5.5336 3.53418C5.71893 3.34868 5.96969 3.24339 6.23189 3.24099C6.49408 3.23859 6.74673 3.33927 6.93542 3.52134L10.7068 7.29334Z" fill="white"/>
</g>
<defs>
<clipPath id="clip0_1051_2277">
<rect width="16" height="16" fill="white" transform="translate(0 16) rotate(-90)"/>
</clipPath>
</defs>
</svg>
