<svg width="24" height="24" viewBox="0 0 24 24" fill="none" xmlns="http://www.w3.org/2000/svg">
<path d="M17.309 11.01C14.429 9.3 9.61402 9.12 6.86902 9.975C6.41902 10.11 5.96902 9.84 5.83402 9.435C5.69902 8.985 5.96902 8.535 6.37402 8.4C9.56902 7.455 14.834 7.635 18.164 9.615C18.569 9.84 18.704 10.38 18.479 10.785C18.254 11.1 17.714 11.235 17.309 11.01ZM17.219 13.53C16.994 13.845 16.589 13.98 16.274 13.755C13.844 12.27 10.154 11.82 7.31902 12.72C6.95902 12.81 6.55402 12.63 6.46402 12.27C6.37402 11.91 6.55402 11.505 6.91402 11.415C10.199 10.425 14.249 10.92 17.039 12.63C17.309 12.765 17.444 13.215 17.219 13.53ZM16.139 16.005C15.959 16.275 15.644 16.365 15.374 16.185C13.259 14.88 10.604 14.61 7.45402 15.33C7.13902 15.42 6.86902 15.195 6.77902 14.925C6.68902 14.61 6.91402 14.34 7.18402 14.25C10.604 13.485 13.574 13.8 15.914 15.24C16.229 15.375 16.274 15.735 16.139 16.005ZM11.999 3C10.8171 3 9.6468 3.23279 8.55487 3.68508C7.46294 4.13738 6.47079 4.80031 5.63506 5.63604C3.94723 7.32387 2.99902 9.61305 2.99902 12C2.99902 14.3869 3.94723 16.6761 5.63506 18.364C6.47079 19.1997 7.46294 19.8626 8.55487 20.3149C9.6468 20.7672 10.8171 21 11.999 21C14.386 21 16.6752 20.0518 18.363 18.364C20.0508 16.6761 20.999 14.3869 20.999 12C20.999 10.8181 20.7662 9.64778 20.3139 8.55585C19.8616 7.46392 19.1987 6.47177 18.363 5.63604C17.5273 4.80031 16.5351 4.13738 15.4432 3.68508C14.3512 3.23279 13.1809 3 11.999 3Z" fill="white"/>
</svg>
