<svg width="16" height="16" viewBox="0 0 16 16" fill="none" xmlns="http://www.w3.org/2000/svg">
<g clip-path="url(#clip0_1051_2279)">
<path fill-rule="evenodd" clip-rule="evenodd" d="M8.7066 5.29331C8.5191 5.10604 8.26493 5.00085 7.99993 5.00085C7.73493 5.00085 7.48077 5.10604 7.29327 5.29331L3.52127 9.06397C3.33376 9.25157 3.22845 9.50597 3.22852 9.77121C3.22858 10.0364 3.334 10.2908 3.5216 10.4783C3.7092 10.6658 3.9636 10.7711 4.22884 10.7711C4.49408 10.771 4.74843 10.6656 4.93593 10.478L7.99993 7.41397L11.0639 10.478C11.2525 10.6602 11.505 10.7611 11.7672 10.759C12.0294 10.7568 12.2803 10.6518 12.4658 10.4665C12.6513 10.2811 12.7565 10.0304 12.7589 9.76817C12.7613 9.50598 12.6607 9.25333 12.4786 9.06464L8.70727 5.29264L8.7066 5.29331Z" fill="white"/>
</g>
<defs>
<clipPath id="clip0_1051_2279">
<rect width="16" height="16" fill="white" transform="matrix(1 0 0 -1 0 16)"/>
</clipPath>
</defs>
</svg>
