<svg width="24" height="24" viewBox="0 0 24 24" fill="none" xmlns="http://www.w3.org/2000/svg">
<g clip-path="url(#clip0_1045_1879)">
<path d="M10.4998 2C12.068 1.99989 13.6057 2.43364 14.9428 3.25327C16.2798 4.07289 17.364 5.24643 18.0754 6.64403C18.7868 8.04163 19.0978 9.6088 18.9737 11.1721C18.8497 12.7355 18.2956 14.234 17.3728 15.502L17.1758 15.762L20.8278 19.414C21.009 19.5935 21.1148 19.8356 21.1234 20.0905C21.1321 20.3455 21.043 20.5942 20.8743 20.7856C20.7056 20.977 20.4702 21.0967 20.2161 21.1202C19.9621 21.1437 19.7087 21.0692 19.5078 20.912L19.4138 20.828L15.7618 17.176C14.6972 18.015 13.4475 18.5872 12.1168 18.8449C10.7861 19.1026 9.41309 19.0384 8.11228 18.6576C6.81147 18.2768 5.62059 17.5904 4.639 16.6557C3.65741 15.7211 2.91357 14.5652 2.46954 13.2846C2.02551 12.004 1.89417 10.6357 2.08647 9.29404C2.27878 7.95235 2.78914 6.67609 3.575 5.57175C4.36086 4.46742 5.39941 3.56702 6.60402 2.94569C7.80863 2.32436 9.14436 2.00012 10.4998 2ZM10.4998 4C8.77586 4 7.12256 4.68482 5.90357 5.90381C4.68458 7.12279 3.99977 8.77609 3.99977 10.5C3.99977 12.2239 4.68458 13.8772 5.90357 15.0962C7.12256 16.3152 8.77586 17 10.4998 17C12.2237 17 13.877 16.3152 15.096 15.0962C16.3149 13.8772 16.9998 12.2239 16.9998 10.5C16.9998 8.77609 16.3149 7.12279 15.096 5.90381C13.877 4.68482 12.2237 4 10.4998 4ZM10.4998 6C10.7447 6.00003 10.9811 6.08996 11.1641 6.25272C11.3472 6.41547 11.4641 6.63975 11.4928 6.883L11.4998 7V9.5H13.9998C14.2546 9.50028 14.4998 9.59788 14.6851 9.77285C14.8705 9.94782 14.982 10.187 14.9969 10.4414C15.0119 10.6958 14.9291 10.9464 14.7655 11.1418C14.6019 11.3373 14.3699 11.4629 14.1168 11.493L13.9998 11.5H11.4998V14C11.4995 14.2549 11.4019 14.5 11.2269 14.6854C11.0519 14.8707 10.8128 14.9822 10.5584 14.9972C10.3039 15.0121 10.0534 14.9293 9.85793 14.7657C9.66248 14.6021 9.53687 14.3701 9.50677 14.117L9.49977 14V11.5H6.99977C6.74489 11.4997 6.49973 11.4021 6.3144 11.2272C6.12906 11.0522 6.01753 10.813 6.00259 10.5586C5.98766 10.3042 6.07044 10.0536 6.23403 9.85817C6.39762 9.66271 6.62967 9.5371 6.88277 9.507L6.99977 9.5H9.49977V7C9.49977 6.73478 9.60512 6.48043 9.79266 6.29289C9.9802 6.10536 10.2345 6 10.4998 6Z" fill="white"/>
</g>
<defs>
<clipPath id="clip0_1045_1879">
<rect width="24" height="24" fill="white"/>
</clipPath>
</defs>
</svg>
